<?xml version="1.0" standalone="no"?>
<!DOCTYPE svg PUBLIC "-//W3C//DTD SVG 20010904//EN"
 "http://www.w3.org/TR/2001/REC-SVG-20010904/DTD/svg10.dtd">
<svg version="1.0" xmlns="http://www.w3.org/2000/svg"
 width="800.000000pt" height="800.000000pt" viewBox="0 0 800.000000 800.000000"
 preserveAspectRatio="xMidYMid meet">

<g transform="translate(0.000000,800.000000) scale(0.100000,-0.100000)"
fill="#000000" stroke="none">
<path d="M0 4000 l0 -4000 4000 0 4000 0 0 4000 0 4000 -4000 0 -4000 0 0
-4000z m5120 3307 c0 -7 -4 -17 -9 -22 -4 -6 -31 -53 -59 -105 -27 -52 -80
-151 -116 -218 -36 -68 -66 -128 -66 -133 0 -5 56 -9 124 -9 l124 0 4 -52 c1
-29 2 -63 0 -75 l-3 -23 -248 0 c-136 0 -250 3 -254 6 -3 4 12 40 33 80 22 41
57 107 79 147 21 39 62 116 90 170 l52 97 -115 0 -116 0 0 75 0 75 240 0 c190
0 240 -3 240 -13z m-2620 -237 l0 -240 33 -2 c17 -1 68 -3 112 -3 l80 0 3 -78
3 -77 -193 2 -193 3 -3 318 -2 317 80 0 80 0 0 -240z m438 -77 l-3 -318 -77
-3 -78 -3 0 321 0 320 80 0 81 0 -3 -317z m255 270 c55 -169 112 -323 117
-323 4 0 12 19 19 43 7 23 16 51 21 62 4 11 22 63 40 115 53 162 43 150 132
150 56 0 78 -4 78 -12 1 -7 9 -148 19 -313 11 -165 16 -304 12 -308 -5 -4 -39
-7 -77 -5 l-69 3 -7 95 c-4 52 -9 104 -10 115 -2 11 -20 -33 -42 -97 l-38
-118 -77 0 -77 0 -31 88 c-18 48 -35 99 -38 115 -12 48 -25 40 -25 -15 0 -29
-3 -83 -7 -120 l-6 -68 -72 0 c-39 0 -74 2 -76 4 -2 2 1 85 8 183 6 98 15 240
19 316 l7 137 82 0 82 0 16 -47z m732 28 c104 -47 155 -130 155 -251 0 -79
-17 -128 -64 -178 -32 -36 -105 -76 -150 -82 l-41 -5 -3 -52 -3 -53 -75 0 -74
0 0 320 0 320 108 0 c82 0 116 -5 147 -19z m645 -56 l0 -75 -130 0 -130 0 0
-45 0 -45 105 0 105 0 0 -75 0 -74 -102 -3 -103 -3 0 -45 0 -45 115 -2 c63 0
121 -2 128 -2 8 -1 12 -23 12 -76 l0 -75 -205 0 -205 0 0 320 0 320 205 0 205
0 0 -75z m977 5 c11 -36 47 -146 78 -245 31 -99 68 -210 80 -246 13 -37 21
-70 18 -73 -4 -3 -40 -6 -80 -6 l-74 0 -15 35 -14 35 -99 0 -98 0 -9 -32 -10
-33 -82 -3 c-45 -2 -82 -1 -82 1 0 2 43 130 96 283 53 154 101 296 106 317
l11 38 76 -3 76 -3 22 -65z m-2602 -639 c49 -23 88 -65 104 -110 20 -60 18
-61 -67 -61 -67 0 -79 3 -90 21 -9 15 -19 18 -35 13 -21 -6 -37 -21 -37 -36 0
-16 35 -38 94 -58 115 -38 176 -126 164 -235 -15 -130 -169 -218 -295 -170
-60 23 -103 69 -127 134 -26 74 -20 81 64 81 58 0 72 -3 77 -17 17 -49 60 -66
104 -43 24 13 25 61 2 82 -10 9 -45 24 -77 34 -66 21 -125 70 -146 121 -20 53
-9 144 24 187 55 72 156 96 241 57z m3630 0 c52 -24 81 -53 100 -98 29 -69 25
-73 -65 -73 -45 0 -80 4 -80 10 0 14 -36 31 -54 24 -18 -7 -27 -29 -20 -49 3
-8 40 -27 81 -42 89 -33 143 -80 161 -139 45 -152 -58 -285 -220 -284 -79 1
-166 69 -194 152 -23 71 -17 78 66 78 58 0 72 -3 77 -17 19 -54 72 -69 111
-33 12 12 22 24 22 28 0 23 -38 54 -91 73 -120 44 -170 102 -171 200 0 78 61
166 127 182 45 11 112 5 150 -12z m-5210 -20 c63 -32 131 -99 158 -159 32 -70
31 -209 -2 -274 -28 -58 -83 -115 -142 -147 -38 -21 -61 -25 -166 -29 l-123
-4 0 322 0 322 113 -4 c94 -2 120 -7 162 -27z m615 -46 c0 -53 -4 -75 -12 -76
-7 0 -65 -1 -128 -2 l-115 -2 -3 -42 -3 -42 103 -3 103 -3 3 -77 3 -78 -106 0
-105 0 0 -45 0 -45 130 0 130 0 0 -75 0 -75 -210 0 -210 0 0 320 0 320 210 0
210 0 0 -75z m618 -1 l-3 -76 -125 -1 -125 -2 -3 -42 -3 -43 78 -1 c142 -2
128 7 131 -81 l3 -78 -106 0 -105 0 0 -45 0 -45 130 0 130 0 0 -75 0 -75 -207
2 -208 3 -3 305 c-1 168 0 310 3 317 3 10 54 13 210 13 l206 0 -3 -76z m900
-1 l-3 -78 -55 0 -55 0 -3 -242 -2 -243 -80 0 -80 0 0 239 c0 270 4 256 -78
249 l-37 -3 -3 64 c-2 35 -1 70 2 77 4 11 46 14 201 14 l196 0 -3 -77z m478
47 c60 -30 125 -95 155 -157 19 -39 24 -65 24 -133 0 -73 -4 -93 -28 -142 -94
-192 -361 -240 -511 -91 -68 67 -96 134 -96 232 0 63 5 92 24 133 23 54 99
138 123 138 7 0 13 4 13 10 0 5 21 16 48 25 69 22 185 15 248 -15z m612 -46
l-3 -76 -115 -2 -115 -1 -3 -42 -3 -43 73 -1 c125 -2 113 6 113 -79 l0 -75
-92 -3 -93 -3 0 -119 0 -120 -80 0 -80 0 0 283 c0 155 3 299 6 320 l7 37 194
0 194 0 -3 -76z m466 -216 c52 -161 97 -303 101 -315 18 -62 23 4 23 290 l1
312 108 0 c94 0 114 -3 158 -24 71 -35 124 -88 155 -152 l26 -56 18 43 c26 63
86 126 152 159 53 27 69 30 149 30 81 0 95 -3 140 -29 114 -65 166 -145 173
-266 5 -95 -20 -168 -83 -238 -60 -67 -119 -93 -221 -100 -75 -4 -85 -2 -147
27 -81 39 -117 73 -156 153 -17 33 -31 54 -31 44 0 -52 -83 -152 -163 -196
-37 -20 -61 -24 -187 -29 -80 -3 -172 -5 -206 -3 -59 3 -61 4 -73 37 l-12 35
-95 0 -95 0 -15 -35 -14 -35 -80 0 c-44 0 -80 4 -80 8 0 5 22 71 49 148 26 76
74 217 106 312 l57 172 74 0 73 0 95 -292z m1833 137 c27 -19 38 -67 22 -97
-17 -32 -28 -38 -76 -38 -48 0 -73 25 -73 74 0 62 74 98 127 61z m9 -221 c29
-31 30 -63 3 -98 -16 -20 -29 -26 -60 -26 -50 0 -79 27 -79 75 0 71 87 103
136 49z m-358 -678 c15 -8 38 -26 52 -41 24 -26 25 -31 28 -188 3 -182 -4
-207 -70 -247 -33 -20 -56 -20 -2544 -20 l-2511 0 -29 22 c-71 55 -76 74 -72
245 3 129 5 142 28 177 14 20 39 43 55 51 46 20 5023 22 5063 1z m2 -707 c67
-38 80 -75 80 -238 0 -160 -6 -182 -67 -228 l-36 -28 -2513 0 -2513 0 -28 21
c-15 11 -38 36 -50 54 -21 30 -23 44 -23 177 0 168 8 194 72 236 l42 27 2499
0 2499 0 38 -21z m-2435 -1150 c2311 -1 2371 -2 2397 -20 42 -30 56 -88 61
-247 5 -131 8 -148 33 -200 15 -31 61 -91 104 -137 77 -81 159 -190 195 -257
11 -21 22 -38 26 -38 3 0 14 -18 24 -40 10 -22 21 -40 25 -40 4 0 13 -15 20
-32 8 -18 20 -40 27 -50 8 -9 21 -44 29 -79 12 -51 13 -77 4 -134 -14 -91 -43
-148 -107 -210 -44 -42 -56 -62 -78 -130 -32 -97 -44 -193 -46 -367 0 -73 -5
-216 -9 -317 -7 -153 -11 -186 -25 -200 -16 -15 -17 -14 -13 12 7 35 -5 35
-23 -1 -21 -41 -36 -46 -134 -48 -49 -1 -82 1 -72 3 14 4 17 11 13 26 -3 12
-6 31 -6 41 0 16 -3 17 -12 8 -10 -10 -10 -17 0 -32 6 -10 8 -21 3 -24 -5 -3
-11 4 -14 15 -3 12 -10 18 -16 14 -6 -3 -9 -11 -6 -16 4 -5 -1 -12 -10 -15
-13 -6 -14 -8 -3 -15 9 -6 4 -9 -14 -9 -16 0 -28 5 -28 10 0 15 -30 12 -31 -2
0 -10 -2 -10 -6 0 -2 6 -12 12 -21 12 -15 0 -15 -2 -2 -10 10 -6 -834 -10
-2377 -10 -1390 1 -2393 4 -2393 9 0 5 6 12 13 14 9 4 9 6 -1 6 -7 1 -15 -6
-18 -14 -4 -8 -10 -15 -15 -15 -4 0 -6 7 -3 15 5 11 -1 15 -25 15 -33 0 -42
-16 -13 -23 10 -3 6 -5 -10 -6 -25 -1 -28 3 -28 29 0 30 21 42 35 20 9 -15 25
-12 19 3 -2 7 -18 21 -33 30 -28 16 -29 16 -24 -2 6 -22 -16 -39 -27 -21 -6 9
-9 9 -15 1 -4 -7 1 -24 11 -39 14 -22 14 -24 2 -14 -11 9 -18 10 -23 2 -3 -5
-11 -10 -16 -10 -6 0 -7 5 -4 10 8 13 -8 13 -21 0 -19 -19 -64 9 -64 39 l0 26
-18 -23 c-15 -19 -20 -21 -29 -10 -21 26 -32 169 -32 428 -1 290 -13 388 -63
500 -23 51 -71 110 -89 110 -14 0 -69 123 -78 175 -10 56 -2 129 22 193 16 43
47 102 58 112 7 6 129 201 146 232 7 13 46 58 88 101 41 43 75 81 75 85 0 4
13 21 28 37 48 51 62 105 70 270 6 121 12 158 28 190 25 49 68 73 126 68 23
-1 1110 -3 2413 -4z m-1323 -2949 c20 -6 48 -24 62 -41 26 -30 26 -33 26 -196
l0 -165 -34 -34 -34 -34 -1110 0 -1110 0 -31 26 c-45 37 -54 82 -49 235 5 152
12 172 73 200 38 18 89 19 1105 19 696 0 1078 -4 1102 -10z"/>
<path d="M3824 7147 c-9 -25 1 -210 12 -214 6 -2 26 7 45 20 60 40 63 143 5
180 -36 23 -56 28 -62 14z"/>
<path d="M5422 6960 l-21 -60 46 0 c32 0 44 4 41 13 -3 6 -11 33 -19 60 -7 26
-16 47 -20 47 -4 0 -16 -27 -27 -60z"/>
<path d="M1250 6290 l0 -170 27 11 c54 20 82 43 102 84 26 53 26 87 1 141 -25
50 -44 68 -93 89 l-37 15 0 -170z"/>
<path d="M3788 6443 c-108 -31 -154 -167 -86 -252 74 -92 217 -85 277 13 26
41 28 122 5 163 -41 69 -117 99 -196 76z"/>
<path d="M5330 6291 l0 -170 29 9 c45 13 76 37 99 79 35 62 25 135 -27 194
-22 25 -76 57 -96 57 -3 0 -5 -76 -5 -169z"/>
<path d="M5880 6441 c-53 -20 -99 -78 -107 -138 -14 -106 105 -205 211 -173
48 14 111 73 102 96 -3 8 -2 12 4 9 20 -12 23 67 4 113 -35 85 -128 125 -214
93z"/>
<path d="M4862 6261 c-11 -33 -19 -61 -17 -63 2 -2 22 -2 44 0 l39 4 -20 59
c-11 32 -21 59 -23 59 -2 0 -12 -27 -23 -59z"/>
<path d="M1481 5533 c-55 -27 -71 -76 -71 -220 0 -134 11 -172 58 -208 27 -20
45 -20 2532 -22 2471 -3 2505 -3 2537 17 57 35 68 69 68 215 0 147 -9 175 -64
212 l-34 23 -2496 0 c-2309 0 -2499 -2 -2530 -17z m4369 -74 c0 -25 -22 -49
-45 -49 -29 0 -29 1 -13 35 11 25 58 37 58 14z m-3837 -73 c15 -12 16 -18 7
-35 -9 -18 -17 -20 -50 -15 -49 8 -70 -7 -70 -51 0 -44 21 -59 69 -51 30 4 42
2 55 -13 16 -18 16 -20 -6 -35 -48 -34 -140 -13 -168 39 -16 31 -17 89 0 119
26 50 121 74 163 42z m198 3 c11 -5 29 -25 39 -42 l20 -32 0 43 c0 41 1 42 34
42 32 0 37 -4 63 -56 l28 -56 3 56 c3 55 4 56 32 56 l30 0 0 -115 0 -115 -32
0 c-24 0 -36 6 -44 23 -6 12 -20 38 -30 57 l-19 35 -3 -57 c-3 -57 -4 -58 -32
-58 -29 0 -30 2 -30 48 l-1 47 -14 -32 c-30 -69 -141 -84 -190 -27 -68 79 -19
194 82 194 24 0 53 -5 64 -11z m419 -13 c0 -21 -5 -25 -37 -28 -27 -2 -39 -8
-41 -20 -3 -14 3 -18 28 -18 28 0 31 -3 28 -27 -3 -24 -7 -28 -30 -25 -27 3
-28 2 -28 -42 0 -44 -1 -46 -30 -46 -16 0 -30 3 -30 8 -1 4 -2 55 -3 115 l-2
107 72 0 c71 0 73 -1 73 -24z m199 -11 c25 -29 31 -45 31 -81 0 -39 -5 -51
-34 -80 -28 -28 -42 -34 -76 -34 -78 0 -120 43 -120 121 0 33 7 48 34 75 30
30 40 34 84 34 45 0 53 -4 81 -35z m170 11 c28 -26 34 -63 16 -99 -15 -29 -14
-33 5 -59 28 -38 25 -48 -15 -48 -28 0 -38 5 -47 25 -6 14 -15 25 -20 25 -4 0
-8 -11 -8 -25 0 -21 -5 -25 -30 -25 l-30 0 0 116 0 116 55 -4 c33 -3 62 -12
74 -22z m201 0 c0 -18 -6 -25 -22 -28 -22 -3 -23 -8 -26 -90 l-3 -88 -29 0
-30 0 0 90 c0 87 -1 90 -23 90 -18 0 -23 6 -23 25 0 25 1 25 78 25 76 0 78 -1
78 -24z m196 -10 c26 -26 34 -42 34 -70 0 -74 -47 -126 -113 -126 -75 0 -117
44 -117 121 0 33 7 48 34 75 29 29 41 34 81 34 40 0 52 -5 81 -34z m215 5 c50
-50 30 -136 -37 -161 -13 -5 -24 -16 -24 -25 0 -10 -10 -15 -30 -15 l-30 0 0
115 0 115 46 0 c37 0 51 -5 75 -29z m201 -58 c45 -148 45 -143 9 -143 -19 0
-31 5 -31 13 0 19 -66 21 -74 2 -3 -9 -18 -15 -37 -15 -25 0 -30 3 -26 18 3 9
21 61 39 114 32 95 34 98 63 98 29 0 31 -3 57 -87z m179 58 c31 -32 36 -62 15
-100 -12 -22 -11 -29 8 -58 11 -18 24 -33 27 -33 3 0 21 49 40 110 34 108 34
110 65 110 30 0 31 -2 64 -102 18 -57 35 -109 38 -115 3 -9 -7 -13 -32 -13
-25 0 -36 4 -36 15 0 10 -11 15 -35 15 -24 0 -35 -5 -35 -15 0 -12 -15 -15
-73 -15 -68 0 -75 2 -87 25 -14 26 -32 34 -29 13 4 -30 -3 -38 -31 -38 l-30 0
0 115 0 115 51 0 c43 0 55 -5 80 -29z m473 -81 c20 -61 36 -112 36 -115 0 -13
-61 -3 -66 10 -4 9 -19 15 -35 15 -17 0 -32 -6 -35 -15 -6 -14 -64 -22 -64 -9
0 9 61 207 67 217 2 4 17 7 33 7 27 0 30 -4 64 -110z m218 93 c10 -9 18 -25
18 -36 0 -17 -5 -19 -40 -13 -52 8 -51 -4 3 -29 38 -18 42 -24 45 -61 3 -35
-1 -45 -24 -63 -49 -39 -121 -17 -126 39 -2 19 2 25 17 25 11 0 28 -6 37 -13
17 -14 38 -9 38 9 0 5 -12 14 -27 20 -62 23 -80 70 -47 117 19 27 78 30 106 5z
m102 -57 c-1 -83 5 -100 32 -94 16 3 19 14 22 86 l3 82 34 0 35 0 -4 -52 c-3
-29 -5 -70 -6 -91 0 -53 -35 -87 -89 -87 -68 0 -91 39 -91 156 l0 74 33 0 32
0 -1 -74z m303 -36 c18 -58 33 -108 33 -112 0 -15 -58 -8 -64 7 -3 9 -18 15
-36 15 -18 0 -33 -6 -36 -15 -4 -9 -19 -15 -39 -15 l-34 0 25 63 c14 34 26 76
27 93 1 18 5 30 8 28 4 -2 10 8 13 22 6 21 12 25 38 22 31 -3 32 -6 65 -108z
m243 86 c0 -22 -5 -25 -42 -28 -53 -4 -61 -31 -10 -36 26 -3 32 -8 32 -27 0
-19 -6 -24 -32 -27 -31 -3 -33 -6 -36 -45 -3 -40 -5 -43 -33 -43 l-29 0 0 115
0 115 75 0 c73 0 75 -1 75 -24z m158 -68 c28 -88 30 -91 36 -58 3 19 7 60 8
90 3 54 4 55 34 58 30 3 32 0 54 -58 12 -33 25 -58 28 -56 2 3 12 29 22 58 15
47 20 53 47 56 28 3 31 0 36 -30 4 -18 7 -68 8 -110 1 -43 6 -78 11 -78 5 0 9
44 8 98 -1 53 -1 103 -1 110 1 7 14 12 31 12 l29 0 -2 -115 -2 -115 -67 0 -68
0 -1 33 -1 32 -10 -32 c-9 -28 -16 -33 -43 -33 -34 0 -44 12 -46 53 -1 14 -5
8 -11 -15 l-10 -38 -59 0 c-46 0 -59 3 -59 15 0 10 -11 15 -35 15 -24 0 -35
-5 -35 -15 0 -10 -10 -15 -34 -15 l-34 0 34 103 c19 56 36 108 39 115 2 6 18
12 34 12 29 0 31 -3 59 -92z m452 8 l0 -85 38 -3 c32 -3 37 -7 40 -30 l3 -28
-70 0 -71 0 0 115 0 115 30 0 30 0 0 -84z m154 -28 c-1 -60 1 -108 5 -108 3 0
22 50 41 110 l35 110 33 0 c17 0 32 -5 32 -10 0 -6 14 -51 31 -101 31 -87 32
-89 51 -72 17 15 20 15 35 1 29 -30 10 -46 -56 -47 -48 0 -61 3 -61 14 0 21
-66 20 -74 0 -4 -11 -22 -15 -69 -15 l-65 0 -1 105 c-1 58 1 110 4 116 4 5 19
9 33 7 l27 -3 -1 -107z m-4364 47 c0 -20 5 -25 25 -25 20 0 25 -5 25 -25 0
-20 -5 -25 -25 -25 -20 0 -25 -5 -25 -24 0 -30 -14 -40 -44 -32 -19 5 -22 11
-18 31 4 22 1 25 -22 25 -21 0 -26 5 -26 24 0 18 6 25 23 28 16 2 22 9 21 26
0 18 5 22 33 22 29 0 33 -3 33 -25z"/>
<path d="M2110 5325 c-16 -19 -16 -61 -1 -79 22 -26 52 -26 77 -1 28 28 30 42
8 73 -18 26 -65 30 -84 7z"/>
<path d="M2706 5324 c-17 -16 -21 -51 -8 -70 32 -47 102 -24 102 33 0 49 -59
72 -94 37z"/>
<path d="M2930 5314 c0 -31 23 -28 28 4 2 15 -2 22 -12 22 -11 0 -16 -9 -16
-26z"/>
<path d="M3293 5339 c-27 -10 -39 -52 -24 -85 21 -46 101 -23 101 29 0 42 -40
70 -77 56z"/>
<path d="M3550 5305 c0 -25 4 -35 13 -33 18 7 20 43 2 58 -13 11 -15 8 -15
-25z"/>
<path d="M3747 5275 c-4 -8 -2 -17 3 -20 6 -4 10 3 10 14 0 25 -6 27 -13 6z"/>
<path d="M3920 5314 c0 -31 23 -28 28 4 2 15 -2 22 -12 22 -11 0 -16 -9 -16
-26z"/>
<path d="M4140 5273 c0 -13 5 -23 10 -23 13 0 13 11 0 30 -8 12 -10 11 -10 -7z"/>
<path d="M4390 5264 c0 -8 5 -12 10 -9 6 4 8 11 5 16 -9 14 -15 11 -15 -7z"/>
<path d="M5010 5265 c0 -8 5 -15 10 -15 6 0 10 7 10 15 0 8 -4 15 -10 15 -5 0
-10 -7 -10 -15z"/>
<path d="M5420 5264 c0 -8 5 -12 10 -9 6 3 10 10 10 16 0 5 -4 9 -10 9 -5 0
-10 -7 -10 -16z"/>
<path d="M6200 5264 c0 -8 5 -12 10 -9 6 4 8 11 5 16 -9 14 -15 11 -15 -7z"/>
<path d="M1481 4828 c-62 -30 -71 -59 -71 -221 0 -123 2 -137 23 -168 12 -19
38 -42 57 -51 33 -17 174 -18 2510 -18 l2476 0 44 23 c68 34 80 66 80 219 0
158 -10 187 -77 222 -29 15 -240 16 -2515 16 l-2483 0 -44 -22z m445 -113 c3
-14 4 -35 1 -46 -5 -18 -1 -20 26 -17 30 3 32 5 32 43 0 26 4 40 13 39 6 -1
21 -2 33 -2 19 -2 20 -7 17 -114 l-3 -113 -30 0 c-28 0 -30 2 -31 40 0 37 -2
40 -29 40 -27 0 -29 -3 -29 -40 -1 -36 -4 -40 -28 -43 -18 -2 -28 1 -29 10 -5
99 -2 219 6 222 27 11 45 4 51 -19z m196 -30 l-3 -50 22 37 c25 42 55 58 108
58 49 0 80 -22 65 -47 -9 -14 -21 -17 -57 -15 -37 3 -47 0 -56 -17 -15 -28
-14 -52 6 -73 17 -19 79 -26 68 -8 -3 6 -15 10 -26 10 -16 0 -20 6 -17 26 3
25 6 27 53 27 l50 0 0 -64 0 -64 -72 0 c-62 0 -75 3 -97 24 -14 14 -26 32 -27
40 -1 9 -5 -3 -11 -27 -8 -39 -12 -43 -36 -40 l-27 3 -3 104 c-4 123 -1 133
35 129 26 -3 27 -5 25 -53z m288 -65 l0 -120 -30 0 -30 0 0 113 c0 63 3 117 7
120 3 4 17 7 30 7 23 0 23 -1 23 -120z m174 90 c1 -23 -4 -25 -47 -28 -59 -4
-66 -29 -9 -34 32 -3 37 -6 37 -28 0 -22 -5 -25 -37 -28 -25 -2 -38 -8 -38
-18 0 -10 12 -14 44 -14 36 0 46 -4 51 -20 11 -33 -3 -40 -81 -40 l-74 0 0
113 c0 63 3 116 6 120 3 3 38 5 77 4 69 -2 71 -3 71 -27z m118 -35 l39 -60 -3
60 -2 60 30 0 29 0 -1 -87 c0 -49 4 -88 8 -88 4 0 8 35 7 78 0 42 0 83 0 90 1
8 23 12 76 12 l75 0 0 -30 c0 -29 -2 -30 -45 -30 -37 0 -45 -3 -45 -18 0 -15
6 -17 35 -14 33 4 35 3 35 -27 0 -29 -3 -31 -35 -31 -24 0 -35 -5 -35 -15 0
-11 12 -15 45 -15 43 0 45 -1 45 -30 l0 -30 -71 0 c-57 0 -75 4 -85 18 -13 16
-13 16 -14 0 0 -13 -8 -18 -30 -18 -20 0 -33 6 -38 18 -11 24 -53 92 -58 92
-3 0 -3 -24 -2 -52 3 -51 2 -53 -23 -56 -25 -3 -27 0 -33 50 -6 52 0 163 9
179 3 4 15 7 27 6 14 -1 34 -21 60 -62z m428 50 c36 -18 60 -52 60 -83 0 -37
-29 -83 -60 -93 -15 -6 -30 -19 -33 -30 -3 -13 -14 -19 -31 -19 l-26 0 0 120
0 120 30 0 c17 0 44 -7 60 -15z m206 2 c6 -12 64 -208 64 -216 0 -17 -57 -13
-64 4 -3 9 -18 15 -36 15 -18 0 -33 -6 -36 -15 -4 -9 -19 -15 -35 -15 -26 0
-29 3 -27 30 1 17 5 30 8 30 4 0 17 33 30 73 34 105 37 110 68 102 15 -4 27
-7 28 -8z m172 2 c51 -18 73 -93 40 -136 -7 -8 -3 -22 11 -42 29 -40 26 -51
-9 -51 -24 0 -35 7 -48 30 -22 38 -32 38 -32 0 0 -27 -3 -30 -30 -30 l-30 0 0
113 c0 63 3 117 7 120 10 10 56 8 91 -4z m252 -107 c20 -62 34 -114 32 -117
-3 -3 -18 -5 -34 -5 -18 0 -28 5 -28 15 0 10 -10 15 -34 15 -21 0 -36 -6 -40
-15 -5 -14 -66 -22 -66 -9 0 18 75 220 84 227 6 4 20 6 30 5 16 -2 27 -27 56
-116z m252 3 c20 -60 34 -113 32 -117 -9 -14 -54 -9 -60 7 -4 9 -19 15 -40 15
-24 0 -34 -5 -34 -15 0 -10 -10 -15 -34 -15 -30 0 -33 3 -32 29 1 16 4 27 7
25 4 -2 14 22 24 54 37 119 45 133 74 130 23 -3 29 -13 63 -113z m221 88 c25
-23 22 -48 -8 -51 -13 -1 -27 3 -30 8 -8 13 -25 13 -25 -1 0 -5 16 -17 35 -24
37 -16 55 -41 55 -77 0 -30 -32 -66 -65 -74 -36 -9 -89 25 -93 59 -3 23 0 27
23 27 15 0 33 -7 42 -15 14 -15 33 -12 33 5 0 4 -17 17 -37 27 -41 20 -60 55
-50 95 12 46 78 58 120 21z m95 -43 c3 -96 9 -112 35 -108 20 3 22 10 27 88 5
83 6 85 30 85 25 0 25 -2 28 -88 3 -86 2 -88 -27 -117 -40 -40 -82 -40 -122
-1 -27 28 -29 34 -29 114 0 46 3 87 7 91 4 4 16 6 28 4 17 -3 20 -11 23 -68z
m288 17 c3 -18 17 -63 30 -102 13 -38 24 -73 24 -77 0 -15 -61 -8 -66 7 -4 9
-19 15 -40 15 -24 0 -34 -5 -34 -15 0 -10 -10 -15 -30 -15 -18 0 -30 5 -29 13
0 6 15 57 32 112 28 85 36 100 57 106 32 8 47 -4 56 -44z m437 16 c18 -47 57
-176 57 -192 0 -6 -13 -11 -30 -11 -20 0 -30 5 -30 15 0 10 -10 15 -34 15 -21
0 -36 -6 -40 -15 -7 -21 -66 -20 -66 0 0 14 -3 13 -25 -1 -39 -25 -103 -13
-137 26 -37 41 -39 116 -5 156 39 45 167 44 167 -1 0 -21 -19 -29 -63 -26 -47
2 -67 -12 -67 -48 1 -45 24 -65 67 -58 26 5 42 2 54 -9 15 -13 19 -8 44 63 16
43 32 88 36 101 6 14 17 22 33 22 18 0 27 -9 39 -37z m211 -9 c11 -28 -10 -40
-44 -27 -16 6 -32 7 -35 3 -3 -5 10 -14 30 -21 66 -24 79 -104 23 -143 -30
-22 -60 -20 -92 5 -34 27 -36 69 -2 69 13 0 29 -7 36 -15 7 -8 16 -12 21 -9
13 8 11 34 -3 34 -6 0 -27 10 -45 23 -77 52 -7 151 78 110 15 -7 30 -20 33
-29z m177 -71 c26 -84 35 -100 41 -83 12 31 53 24 53 -10 0 -23 -3 -25 -58
-28 -44 -2 -59 1 -63 13 -8 21 -74 21 -74 0 0 -16 -54 -22 -63 -7 -6 9 58 200
73 217 6 7 21 10 34 8 21 -4 29 -19 57 -110z m-3701 53 c0 -18 7 -25 29 -29
24 -5 28 -10 24 -31 -4 -19 -12 -26 -29 -26 -19 0 -24 -5 -24 -25 0 -21 -5
-25 -30 -25 -25 0 -30 4 -30 24 0 18 -6 25 -22 28 -33 4 -34 46 -2 54 17 4 24
13 24 30 0 20 5 24 30 24 25 0 30 -4 30 -24z"/>
<path d="M3098 4640 c-3 -17 -1 -33 4 -36 10 -7 27 37 21 54 -9 21 -21 13 -25
-18z"/>
<path d="M3296 4611 c-4 -7 -5 -15 -2 -18 9 -9 19 4 14 18 -4 11 -6 11 -12 0z"/>
<path d="M3470 4655 c0 -16 6 -25 15 -25 8 0 15 9 15 19 0 10 -7 21 -15 25
-11 4 -15 -1 -15 -19z"/>
<path d="M3686 4605 c-3 -9 0 -15 9 -15 9 0 12 6 9 15 -4 8 -7 15 -9 15 -2 0
-5 -7 -9 -15z"/>
<path d="M3940 4605 c0 -8 4 -15 10 -15 5 0 7 7 4 15 -4 8 -8 15 -10 15 -2 0
-4 -7 -4 -15z"/>
<path d="M4560 4606 c0 -9 5 -16 10 -16 6 0 10 4 10 9 0 6 -4 13 -10 16 -5 3
-10 -1 -10 -9z"/>
<path d="M5006 4611 c-4 -7 -5 -15 -2 -18 9 -9 19 4 14 18 -4 11 -6 11 -12 0z"/>
<path d="M5366 4605 c-3 -9 0 -15 9 -15 9 0 12 6 9 15 -4 8 -7 15 -9 15 -2 0
-5 -7 -9 -15z"/>
<path d="M4140 3208 c0 -4 4 -8 9 -8 6 0 12 4 15 8 3 5 -1 9 -9 9 -8 0 -15 -4
-15 -9z"/>
<path d="M1654 3031 c10 -11 36 -32 59 -48 23 -15 48 -35 55 -43 25 -29 52
-90 52 -115 0 -14 4 -24 9 -21 10 7 26 -165 18 -204 -4 -21 -4 -20 -6 8 0 17
-5 32 -11 32 -9 0 -15 -59 -10 -103 1 -10 -3 -24 -8 -30 -5 -7 -8 -25 -7 -42
1 -16 -3 -48 -8 -70 -5 -22 -11 -50 -12 -62 -5 -36 -16 -63 -26 -63 -15 0 -23
31 -11 39 13 8 13 131 1 131 -4 0 -11 9 -14 20 -3 11 -10 20 -15 20 -11 0 0
-32 14 -42 6 -4 6 -11 -1 -20 -8 -10 -8 -18 3 -32 16 -23 19 -62 4 -71 -11 -7
-3 -246 10 -258 11 -12 22 45 14 77 -4 19 -2 26 8 26 20 0 49 33 51 59 1 11 5
21 9 21 4 0 8 7 8 15 0 8 13 24 30 37 16 12 32 30 35 39 4 11 12 16 21 12 7
-3 14 0 14 6 0 6 5 11 12 11 6 0 22 10 36 23 l24 22 1801 3 c2144 3 2347 -1
2347 -53 0 -7 6 -12 13 -11 6 0 13 -3 14 -7 1 -5 14 -18 29 -29 15 -12 37 -45
50 -75 13 -29 33 -58 44 -65 13 -9 20 -24 21 -48 1 -19 4 -46 9 -60 13 -44 22
-4 29 130 1 8 1 47 1 85 0 39 3 88 5 110 3 22 1 54 -4 70 l-9 30 -1 -28 c-1
-16 -6 -38 -12 -49 -6 -11 -7 -23 -3 -27 5 -3 4 -44 -1 -91 -8 -62 -13 -78
-18 -60 -4 14 -7 39 -7 57 0 17 -5 35 -11 39 -7 4 -9 24 -6 52 3 32 0 53 -13
74 -12 21 -16 42 -12 73 2 25 0 51 -6 58 -12 14 -11 228 1 220 4 -2 7 9 7 25
0 54 47 120 120 168 34 22 51 44 36 44 -14 0 -109 -56 -113 -67 -3 -7 -12 -13
-19 -13 -8 0 -17 -7 -20 -15 -4 -9 -14 -14 -23 -13 -12 2 -16 -4 -16 -24 1
-25 -3 -28 -31 -28 -18 0 -35 -6 -38 -12 -5 -10 -7 -10 -12 0 -9 19 -24 14
-24 -8 0 -22 -19 -27 -37 -9 -6 6 -25 13 -42 15 -27 5 -33 2 -38 -15 -6 -24
-23 -28 -23 -6 0 8 -4 15 -9 15 -5 0 -16 3 -25 6 -11 4 -19 -2 -25 -17 -17
-45 1 -51 121 -35 21 3 40 1 43 -4 4 -6 19 -10 36 -10 16 0 29 -3 29 -7 0 -5
-25 -7 -55 -7 -31 1 -58 -2 -60 -6 -3 -5 -21 -7 -41 -5 -48 5 -66 -3 -59 -26
5 -13 1 -19 -10 -19 -12 0 -15 5 -10 21 7 20 5 21 -21 15 -34 -9 -30 -4 -37
-44 -6 -29 -5 -33 12 -27 20 6 38 -9 23 -19 -5 -3 -29 -8 -53 -11 -42 -5 -43
-5 -21 10 12 9 20 21 17 26 -10 15 -47 10 -67 -8 -17 -15 -18 -15 -18 5 0 31
-45 31 -53 0 -5 -18 -8 -19 -21 -8 -9 7 -16 19 -16 26 0 8 -7 14 -16 14 -14 0
-16 -9 -12 -57 5 -57 -6 -113 -22 -113 -22 0 -31 31 -24 89 5 51 4 61 -9 61
-15 0 -31 -60 -18 -70 5 -5 7 -37 3 -67 -2 -9 -25 -12 -86 -9 -75 3 -85 1 -89
-16 -6 -22 -47 -25 -47 -3 0 8 -4 15 -10 15 -5 0 -10 -7 -10 -15 0 -20 -47
-38 -67 -26 -11 6 -26 3 -47 -10 -21 -12 -32 -15 -37 -7 -4 6 -12 7 -18 4 -18
-11 -13 -24 12 -29 12 -2 3 -5 -20 -6 -37 -1 -43 2 -43 19 0 22 -15 27 -26 9
-4 -8 -11 -4 -19 11 l-12 23 -7 -27 c-9 -35 -25 -33 -32 4 -4 17 -11 30 -16
30 -5 0 -6 -9 -3 -20 4 -11 2 -20 -4 -20 -6 0 -11 9 -11 20 0 11 -4 20 -10 20
-5 0 -10 -9 -10 -20 0 -26 -30 -27 -37 -1 -3 13 -11 17 -24 14 -13 -4 -19 0
-19 11 0 9 8 16 20 16 20 0 26 11 14 23 -10 9 -44 -12 -44 -27 0 -18 -37 -49
-49 -41 -6 3 -11 16 -12 28 0 20 -1 20 -8 4 -6 -17 -8 -18 -20 -3 -13 15 -15
15 -28 -4 -12 -16 -21 -19 -47 -15 -23 5 -36 2 -45 -9 -8 -9 -19 -16 -26 -16
-8 0 -15 -5 -17 -12 -3 -7 -25 -13 -54 -14 -27 0 -57 -4 -66 -8 -9 -4 -25 -3
-35 3 -10 6 -12 11 -5 11 6 0 12 4 12 10 0 5 -16 2 -36 -7 -27 -14 -37 -15
-43 -5 -6 10 -15 10 -35 2 -34 -12 -57 -13 -38 -1 11 7 11 9 -2 14 -9 4 -23 4
-31 1 -8 -4 -23 -3 -32 1 -33 14 -65 11 -88 -7 -31 -24 -195 -26 -239 -3 -16
9 -37 13 -45 9 -13 -5 -11 -8 9 -14 15 -5 -22 -9 -95 -10 -66 -1 -136 -3 -155
-5 -19 -2 -47 1 -62 6 -19 8 -32 7 -49 -2 -15 -8 -24 -8 -27 -1 -2 6 -25 8
-62 5 -56 -5 -59 -5 -53 16 4 17 1 21 -20 21 -18 0 -28 8 -37 30 -7 17 -17 30
-23 30 -6 0 -7 -3 -4 -6 3 -4 2 -15 -4 -25 -7 -15 -19 -18 -60 -15 -27 1 -52
-1 -55 -6 -4 -5 -22 -8 -43 -6 -32 2 -36 0 -35 -20 0 -12 -2 -22 -5 -22 -9 0
-55 32 -63 44 -4 6 -8 1 -8 -11 0 -27 -17 -31 -23 -5 -4 16 -5 16 -6 0 -1 -17
-31 -26 -31 -10 0 5 -6 15 -12 23 -7 8 -12 12 -10 10 6 -11 -44 -51 -62 -50
-21 0 -21 1 -1 9 17 7 17 9 3 9 -10 1 -18 8 -18 16 0 17 -25 20 -35 5 -12 -19
-34 -10 -52 20 -9 17 -20 30 -23 30 -4 0 -12 -17 -18 -37 -9 -29 -9 -39 1 -46
8 -5 5 -7 -8 -5 -13 2 -23 16 -31 43 -13 47 -39 57 -61 25 l-16 -23 -14 27
c-7 14 -17 26 -21 26 -12 0 -29 -14 -35 -30 -4 -12 -6 -12 -6 2 -1 20 -27 27
-58 17 -25 -9 -37 2 -47 46 l-8 30 -23 -29 -22 -28 -11 29 c-7 23 -16 29 -33
28 -14 -1 -25 -9 -27 -18 -2 -10 -8 -15 -13 -11 -5 3 -7 10 -3 15 3 5 0 17 -7
25 -10 13 -10 17 2 24 11 8 12 13 1 30 -7 12 -8 20 -2 20 5 0 10 5 10 10 0 6
-18 10 -40 10 -22 0 -40 -4 -40 -10 0 -5 5 -10 10 -10 6 0 8 -11 4 -25 -5 -21
-3 -25 15 -25 12 0 21 -4 21 -10 0 -12 -42 -9 -52 4 -3 5 -21 9 -38 8 -18 0
-39 6 -47 14 -8 8 -10 14 -5 14 5 0 8 17 7 38 -3 36 -4 37 -41 39 -83 3 -176
12 -182 17 -3 3 11 6 31 6 21 0 37 5 37 10 0 7 6 7 20 0 10 -6 37 -8 58 -4 24
4 42 2 46 -4 9 -16 36 -3 36 17 0 9 -5 23 -10 31 -9 13 -12 13 -21 -2 -15 -26
-49 -23 -49 3 0 17 -4 20 -22 15 -13 -3 -31 -6 -40 -6 -10 0 -18 -7 -18 -15 0
-24 -19 -17 -26 10 -6 24 -34 36 -34 15 0 -15 -27 -12 -33 4 -3 8 -21 23 -39
32 -18 9 -40 23 -48 30 -8 7 -26 24 -41 36 -25 23 -120 78 -135 78 -4 0 1 -9
10 -19z m4351 -321 c3 -5 1 -10 -4 -10 -6 0 -11 5 -11 10 0 6 2 10 4 10 3 0 8
-4 11 -10z m-3900 -10 c3 -5 -1 -10 -9 -10 -9 0 -16 5 -16 10 0 6 4 10 9 10 6
0 13 -4 16 -10z m3855 -4 c0 -8 -4 -17 -9 -21 -12 -7 -24 12 -16 25 9 15 25
12 25 -4z m-166 -35 c4 -5 3 -16 0 -25 -5 -13 -9 -14 -21 -5 -11 10 -22 7 -54
-10 l-41 -23 4 28 c3 27 6 29 46 29 23 0 42 3 42 8 0 10 18 9 24 -2z m-876
-184 c24 -4 24 -4 -5 -6 -30 -1 -33 2 -32 27 1 22 2 23 6 5 3 -14 13 -23 31
-26z m-198 8 c0 -11 -11 -15 -42 -14 -34 2 -37 3 -13 6 17 3 34 9 40 14 12 12
15 11 15 -6z m-1893 -11 c-3 -3 -12 -4 -19 -1 -8 3 -5 6 6 6 11 1 17 -2 13 -5z
m1440 0 c-3 -3 -12 -4 -19 -1 -8 3 -5 6 6 6 11 1 17 -2 13 -5z m-2492 -254
c-11 -18 -22 -11 -22 14 0 22 1 23 14 11 8 -8 11 -19 8 -25z"/>
<path d="M2107 2933 c-4 -3 -7 -11 -7 -17 0 -6 5 -5 12 2 6 6 9 14 7 17 -3 3
-9 2 -12 -2z"/>
<path d="M5935 2920 c3 -5 8 -10 11 -10 2 0 4 5 4 10 0 6 -5 10 -11 10 -5 0
-7 -4 -4 -10z"/>
<path d="M5780 2890 c0 -5 5 -10 10 -10 6 0 10 5 10 10 0 6 -4 10 -10 10 -5 0
-10 -4 -10 -10z"/>
<path d="M5305 2850 c3 -5 8 -10 11 -10 2 0 4 5 4 10 0 6 -5 10 -11 10 -5 0
-7 -4 -4 -10z"/>
<path d="M5910 2845 c0 -8 -7 -15 -15 -15 -8 0 -15 -7 -15 -15 0 -8 9 -15 20
-15 16 0 20 7 20 30 0 17 -2 30 -5 30 -3 0 -5 -7 -5 -15z"/>
<path d="M5790 2808 c0 -26 3 -29 23 -22 43 13 45 48 2 50 -21 2 -25 -2 -25
-28z"/>
<path d="M2192 2821 c-10 -6 -7 -12 12 -24 33 -22 36 -22 36 8 0 26 -22 33
-48 16z"/>
<path d="M5660 2810 c0 -5 5 -10 11 -10 5 0 7 5 4 10 -3 6 -8 10 -11 10 -2 0
-4 -4 -4 -10z"/>
<path d="M2285 2790 c-3 -5 3 -10 14 -10 12 0 21 5 21 10 0 6 -6 10 -14 10 -8
0 -18 -4 -21 -10z"/>
<path d="M5591 2774 c0 -11 3 -14 6 -6 3 7 2 16 -1 19 -3 4 -6 -2 -5 -13z"/>
<path d="M2377 2766 c-3 -8 -2 -18 3 -21 13 -8 24 15 12 27 -6 6 -11 4 -15 -6z"/>
<path d="M2505 2770 c-3 -5 1 -10 10 -10 9 0 13 5 10 10 -3 6 -8 10 -10 10 -2
0 -7 -4 -10 -10z"/>
<path d="M5655 2770 c-3 -5 1 -10 10 -10 9 0 13 5 10 10 -3 6 -8 10 -10 10 -2
0 -7 -4 -10 -10z"/>
<path d="M2178 2730 c-5 -36 -3 -40 34 -40 34 0 34 3 7 41 -26 37 -36 37 -41
-1z"/>
<path d="M5790 2734 c0 -11 6 -14 23 -9 38 12 43 25 9 25 -22 0 -32 -5 -32
-16z"/>
<path d="M2337 2700 c-9 -42 -4 -48 33 -42 31 4 39 23 20 52 -8 13 -11 13 -19
1 -7 -11 -10 -10 -18 4 -9 15 -11 12 -16 -15z"/>
<path d="M2431 2702 c-14 -27 -2 -62 21 -62 14 0 18 5 14 16 -3 9 -6 27 -6 40
0 28 -15 32 -29 6z"/>
<path d="M1832 2680 c0 -14 2 -19 5 -12 2 6 2 18 0 25 -3 6 -5 1 -5 -13z"/>
<path d="M2517 2693 c-13 -13 -7 -53 8 -53 8 0 15 8 15 18 0 22 -14 44 -23 35z"/>
<path d="M5502 2670 c0 -14 2 -19 5 -12 2 6 2 18 0 25 -3 6 -5 1 -5 -13z"/>
<path d="M5526 2644 c-9 -24 -7 -27 9 -10 17 17 19 26 6 26 -5 0 -12 -7 -15
-16z"/>
<path d="M2585 2621 c-7 -12 12 -24 25 -16 11 7 4 25 -10 25 -5 0 -11 -4 -15
-9z"/>
<path d="M2520 2609 c0 -5 5 -7 10 -4 6 3 10 8 10 11 0 2 -4 4 -10 4 -5 0 -10
-5 -10 -11z"/>
<path d="M5490 2606 c0 -9 7 -16 16 -16 9 0 14 5 12 12 -6 18 -28 21 -28 4z"/>
<path d="M4735 2581 c-3 -5 -1 -12 5 -16 5 -3 10 1 10 9 0 18 -6 21 -15 7z"/>
<path d="M5000 2576 c0 -9 5 -16 10 -16 6 0 10 4 10 9 0 6 -4 13 -10 16 -5 3
-10 -1 -10 -9z"/>
<path d="M4130 2552 c0 -5 7 -15 15 -22 8 -7 15 -8 15 -2 0 5 -7 15 -15 22 -8
7 -15 8 -15 2z"/>
<path d="M4190 2530 c0 -5 5 -10 11 -10 5 0 7 5 4 10 -3 6 -8 10 -11 10 -2 0
-4 -4 -4 -10z"/>
<path d="M4032 2499 c5 -16 58 -25 58 -10 0 6 -6 11 -14 11 -8 0 -22 3 -32 7
-12 4 -15 2 -12 -8z"/>
<path d="M5136 2501 c-4 -7 -5 -15 -2 -18 9 -9 19 4 14 18 -4 11 -6 11 -12 0z"/>
<path d="M3450 2490 c0 -5 7 -10 16 -10 8 0 12 5 9 10 -3 6 -10 10 -16 10 -5
0 -9 -4 -9 -10z"/>
<path d="M4115 2490 c-3 -5 3 -10 15 -10 12 0 18 5 15 10 -3 6 -10 10 -15 10
-5 0 -12 -4 -15 -10z"/>
<path d="M3618 2483 c6 -2 18 -2 25 0 6 3 1 5 -13 5 -14 0 -19 -2 -12 -5z"/>
<path d="M6900 2346 c0 -9 5 -16 10 -16 6 0 10 4 10 9 0 6 -4 13 -10 16 -5 3
-10 -1 -10 -9z"/>
<path d="M1190 2341 c0 -6 4 -13 10 -16 6 -3 7 1 4 9 -7 18 -14 21 -14 7z"/>
<path d="M6915 2319 c-4 -6 -5 -13 -2 -16 7 -7 27 6 27 18 0 12 -17 12 -25 -2z"/>
<path d="M1166 2305 c4 -8 8 -15 10 -15 2 0 4 7 4 15 0 8 -4 15 -10 15 -5 0
-7 -7 -4 -15z"/>
<path d="M5592 1720 c0 -14 2 -19 5 -12 2 6 2 18 0 25 -3 6 -5 1 -5 -13z"/>
<path d="M4431 1714 c0 -11 3 -14 6 -6 3 7 2 16 -1 19 -3 4 -6 -2 -5 -13z"/>
<path d="M4472 1705 c0 -16 2 -22 5 -12 2 9 2 23 0 30 -3 6 -5 -1 -5 -18z"/>
<path d="M4791 1684 c0 -11 3 -14 6 -6 3 7 2 16 -1 19 -3 4 -6 -2 -5 -13z"/>
<path d="M4210 1679 c0 -5 5 -7 10 -4 6 3 10 8 10 11 0 2 -4 4 -10 4 -5 0 -10
-5 -10 -11z"/>
<path d="M4835 1670 c3 -5 8 -10 11 -10 2 0 4 5 4 10 0 6 -5 10 -11 10 -5 0
-7 -4 -4 -10z"/>
<path d="M5060 1669 c0 -5 5 -7 10 -4 6 3 10 8 10 11 0 2 -4 4 -10 4 -5 0 -10
-5 -10 -11z"/>
<path d="M4742 1620 c0 -14 2 -19 5 -12 2 6 2 18 0 25 -3 6 -5 1 -5 -13z"/>
<path d="M4391 1604 c0 -11 3 -14 6 -6 3 7 2 16 -1 19 -3 4 -6 -2 -5 -13z"/>
<path d="M4510 1584 c0 -8 5 -12 10 -9 6 3 10 10 10 16 0 5 -4 9 -10 9 -5 0
-10 -7 -10 -16z"/>
<path d="M4558 1565 c2 -19 6 -35 8 -35 2 0 4 16 4 35 0 19 -4 35 -8 35 -4 0
-6 -16 -4 -35z"/>
<path d="M4600 1584 c0 -8 5 -12 10 -9 6 3 10 10 10 16 0 5 -4 9 -10 9 -5 0
-10 -7 -10 -16z"/>
<path d="M4041 1544 c0 -11 3 -14 6 -6 3 7 2 16 -1 19 -3 4 -6 -2 -5 -13z"/>
<path d="M4743 1480 c0 -25 2 -35 4 -22 2 12 2 32 0 45 -2 12 -4 2 -4 -23z"/>
<path d="M4590 1490 c0 -5 5 -10 10 -10 6 0 10 5 10 10 0 6 -4 10 -10 10 -5 0
-10 -4 -10 -10z"/>
<path d="M4652 1470 c0 -14 2 -19 5 -12 2 6 2 18 0 25 -3 6 -5 1 -5 -13z"/>
<path d="M4692 1470 c0 -14 2 -19 5 -12 2 6 2 18 0 25 -3 6 -5 1 -5 -13z"/>
<path d="M6591 1474 c0 -11 3 -14 6 -6 3 7 2 16 -1 19 -3 4 -6 -2 -5 -13z"/>
<path d="M3912 1420 c0 -19 2 -27 5 -17 2 9 2 25 0 35 -3 9 -5 1 -5 -18z"/>
<path d="M4371 1403 c1 -53 6 -49 11 10 2 20 0 37 -4 37 -4 0 -8 -21 -7 -47z"/>
<path d="M6545 1440 c-3 -5 -2 -10 4 -10 5 0 13 5 16 10 3 6 2 10 -4 10 -5 0
-13 -4 -16 -10z"/>
<path d="M4143 1400 c0 -25 2 -35 4 -22 2 12 2 32 0 45 -2 12 -4 2 -4 -23z"/>
<path d="M4332 1415 c0 -16 2 -22 5 -12 2 9 2 23 0 30 -3 6 -5 -1 -5 -18z"/>
<path d="M6590 1433 c0 -6 -3 -18 -6 -27 -3 -9 -2 -16 4 -16 15 0 21 25 11 41
-5 9 -9 9 -9 2z"/>
<path d="M1500 1399 c0 -11 5 -17 10 -14 6 3 10 13 10 21 0 8 -4 14 -10 14 -5
0 -10 -9 -10 -21z"/>
<path d="M1592 1400 c0 -14 2 -19 5 -12 2 6 2 18 0 25 -3 6 -5 1 -5 -13z"/>
<path d="M1670 1411 c0 -6 4 -13 10 -16 6 -3 7 1 4 9 -7 18 -14 21 -14 7z"/>
<path d="M4102 1400 c0 -14 2 -19 5 -12 2 6 2 18 0 25 -3 6 -5 1 -5 -13z"/>
<path d="M6505 1409 c-4 -6 -5 -12 -2 -15 2 -3 7 2 10 11 7 17 1 20 -8 4z"/>
<path d="M4410 1400 c0 -5 5 -10 10 -10 6 0 10 5 10 10 0 6 -4 10 -10 10 -5 0
-10 -4 -10 -10z"/>
<path d="M3491 1384 c0 -11 3 -14 6 -6 3 7 2 16 -1 19 -3 4 -6 -2 -5 -13z"/>
<path d="M6631 1374 c0 -11 3 -14 6 -6 3 7 2 16 -1 19 -3 4 -6 -2 -5 -13z"/>
<path d="M1460 1370 c0 -5 5 -10 10 -10 6 0 10 5 10 10 0 6 -4 10 -10 10 -5 0
-10 -4 -10 -10z"/>
<path d="M1540 1371 c0 -5 5 -13 10 -16 6 -3 10 -2 10 4 0 5 -4 13 -10 16 -5
3 -10 2 -10 -4z"/>
<path d="M6471 1364 c0 -11 3 -14 6 -6 3 7 2 16 -1 19 -3 4 -6 -2 -5 -13z"/>
<path d="M1495 1350 c3 -5 8 -10 11 -10 2 0 4 5 4 10 0 6 -5 10 -11 10 -5 0
-7 -4 -4 -10z"/>
<path d="M3491 1315 c1 -43 2 -46 9 -22 5 16 5 38 0 50 -7 17 -9 10 -9 -28z"/>
<path d="M3593 1325 c0 -22 2 -30 4 -17 2 12 2 30 0 40 -3 9 -5 -1 -4 -23z"/>
<path d="M3860 1345 c0 -8 5 -15 10 -15 6 0 10 7 10 15 0 8 -4 15 -10 15 -5 0
-10 -7 -10 -15z"/>
<path d="M6430 1345 c0 -8 4 -15 10 -15 5 0 7 7 4 15 -4 8 -8 15 -10 15 -2 0
-4 -7 -4 -15z"/>
<path d="M1457 1326 c-4 -15 -6 -31 -2 -34 10 -10 16 6 13 35 l-3 28 -8 -29z"/>
<path d="M1581 1334 c0 -11 3 -14 6 -6 3 7 2 16 -1 19 -3 4 -6 -2 -5 -13z"/>
<path d="M4372 1290 c-1 -42 2 -58 7 -45 5 11 5 40 1 65 -7 43 -8 43 -8 -20z"/>
<path d="M4417 1333 c-9 -14 -5 -93 4 -93 11 0 15 33 9 70 -3 21 -8 30 -13 23z"/>
<path d="M4791 1324 c0 -11 3 -14 6 -6 3 7 2 16 -1 19 -3 4 -6 -2 -5 -13z"/>
<path d="M4895 1330 c-4 -6 -3 -16 3 -22 6 -6 12 -6 17 2 4 6 3 16 -3 22 -6 6
-12 6 -17 -2z"/>
<path d="M4952 1320 c0 -14 2 -19 5 -12 2 6 2 18 0 25 -3 6 -5 1 -5 -13z"/>
<path d="M6556 1324 c-4 -9 -4 -19 -2 -21 8 -8 26 8 26 23 0 19 -16 18 -24 -2z"/>
<path d="M6641 1324 c0 -11 3 -14 6 -6 3 7 2 16 -1 19 -3 4 -6 -2 -5 -13z"/>
<path d="M1610 1306 c0 -14 5 -28 10 -31 6 -3 10 5 10 19 0 14 -4 28 -10 31
-6 3 -10 -5 -10 -19z"/>
<path d="M1665 1320 c-3 -5 -1 -10 4 -10 6 0 11 5 11 10 0 6 -2 10 -4 10 -3 0
-8 -4 -11 -10z"/>
<path d="M1751 1314 c0 -11 3 -14 6 -6 3 7 2 16 -1 19 -3 4 -6 -2 -5 -13z"/>
<path d="M4332 1305 c0 -16 2 -22 5 -12 2 9 2 23 0 30 -3 6 -5 -1 -5 -18z"/>
<path d="M4550 1315 c0 -9 6 -12 15 -9 8 4 15 7 15 9 0 2 -7 5 -15 9 -9 3 -15
0 -15 -9z"/>
<path d="M4595 1321 c-3 -5 -1 -12 5 -16 5 -3 10 1 10 9 0 18 -6 21 -15 7z"/>
<path d="M5421 1323 c0 -5 4 -17 9 -28 8 -18 9 -17 9 8 1 15 -3 27 -9 27 -5 0
-10 -3 -9 -7z"/>
<path d="M6515 1313 c4 -10 7 -26 7 -35 0 -10 3 -18 9 -18 10 0 11 15 3 48 -4
12 -11 22 -16 22 -6 0 -7 -8 -3 -17z"/>
<path d="M1530 1295 c0 -15 4 -24 10 -20 6 3 10 12 10 20 0 8 -4 17 -10 20 -6
4 -10 -5 -10 -20z"/>
<path d="M3050 1310 c0 -5 5 -10 10 -10 6 0 10 5 10 10 0 6 -4 10 -10 10 -5 0
-10 -4 -10 -10z"/>
<path d="M4482 1300 c0 -14 2 -19 5 -12 2 6 2 18 0 25 -3 6 -5 1 -5 -13z"/>
<path d="M4510 1309 c0 -5 5 -7 10 -4 6 3 10 8 10 11 0 2 -4 4 -10 4 -5 0 -10
-5 -10 -11z"/>
<path d="M6607 1313 c-11 -10 -8 -43 3 -43 6 0 10 11 10 25 0 26 -2 29 -13 18z"/>
<path d="M1568 1275 c-3 -14 -1 -28 3 -31 5 -3 9 9 9 25 0 38 -6 40 -12 6z"/>
<path d="M6765 1290 c-3 -5 -1 -10 4 -10 6 0 11 5 11 10 0 6 -2 10 -4 10 -3 0
-8 -4 -11 -10z"/>
<path d="M1336 1275 c4 -8 11 -15 16 -15 6 0 5 6 -2 15 -7 8 -14 15 -16 15 -2
0 -1 -7 2 -15z"/>
<path d="M1486 1282 c-2 -4 -1 -14 5 -22 7 -12 9 -10 9 8 0 23 -5 28 -14 14z"/>
<path d="M4787 1253 c-2 -21 0 -42 4 -47 5 -6 9 10 9 37 0 57 -6 61 -13 10z"/>
<path d="M1650 1264 c0 -8 5 -12 10 -9 6 3 10 10 10 16 0 5 -4 9 -10 9 -5 0
-10 -7 -10 -16z"/>
<path d="M6444 1269 c-3 -6 -1 -16 5 -22 8 -8 11 -5 11 11 0 24 -5 28 -16 11z"/>
<path d="M6570 1253 c0 -22 2 -25 10 -13 13 20 13 40 0 40 -5 0 -10 -12 -10
-27z"/>
<path d="M4105 1258 c-9 -22 4 -43 17 -30 7 7 7 16 0 29 -10 17 -11 17 -17 1z"/>
<path d="M5590 1261 c0 -6 4 -13 10 -16 6 -3 7 1 4 9 -7 18 -14 21 -14 7z"/>
<path d="M6360 1260 c0 -5 5 -10 11 -10 5 0 7 5 4 10 -3 6 -8 10 -11 10 -2 0
-4 -4 -4 -10z"/>
<path d="M6484 1254 c-4 -10 -14 -27 -22 -36 -13 -15 -13 -18 -1 -18 22 1 54
49 40 63 -7 7 -12 5 -17 -9z"/>
<path d="M6730 1260 c0 -5 5 -10 10 -10 6 0 10 5 10 10 0 6 -4 10 -10 10 -5 0
-10 -4 -10 -10z"/>
<path d="M2230 1243 c0 -13 5 -23 10 -23 13 0 13 11 0 30 -8 12 -10 11 -10 -7z"/>
<path d="M2851 1244 c0 -11 3 -14 6 -6 3 7 2 16 -1 19 -3 4 -6 -2 -5 -13z"/>
<path d="M3050 1243 c0 -13 5 -23 10 -23 13 0 13 11 0 30 -8 12 -10 11 -10 -7z"/>
<path d="M3352 1240 c0 -14 2 -19 5 -12 2 6 2 18 0 25 -3 6 -5 1 -5 -13z"/>
<path d="M3770 1243 c0 -10 5 -25 10 -33 7 -11 10 -7 10 18 0 17 -4 32 -10 32
-5 0 -10 -8 -10 -17z"/>
<path d="M4015 1250 c-4 -6 -2 -17 4 -23 15 -15 25 -2 13 19 -7 12 -11 13 -17
4z"/>
<path d="M4157 1245 c-4 -8 -2 -17 3 -20 6 -4 10 3 10 14 0 25 -6 27 -13 6z"/>
<path d="M4595 1247 c-4 -10 -14 -16 -21 -13 -8 3 -14 2 -14 -3 0 -15 41 -20
47 -6 8 23 -3 43 -12 22z"/>
<path d="M4694 1249 c-3 -6 -1 -16 5 -22 8 -8 11 -5 11 11 0 24 -5 28 -16 11z"/>
<path d="M4736 1245 c-8 -22 3 -40 16 -27 7 7 7 16 1 27 -9 16 -10 16 -17 0z"/>
<path d="M4897 1246 c-4 -10 -5 -21 -2 -24 9 -9 17 6 13 25 -3 17 -4 17 -11
-1z"/>
<path d="M1597 1244 c-4 -4 -7 -17 -7 -28 1 -19 1 -20 11 -3 11 19 8 43 -4 31z"/>
<path d="M3450 1230 c0 -19 3 -21 12 -12 9 9 9 15 0 24 -9 9 -12 7 -12 -12z"/>
<path d="M3877 1229 c4 -13 8 -18 11 -10 2 7 -1 18 -6 23 -8 8 -9 4 -5 -13z"/>
<path d="M3931 1234 c0 -11 3 -14 6 -6 3 7 2 16 -1 19 -3 4 -6 -2 -5 -13z"/>
<path d="M4631 1234 c0 -11 3 -14 6 -6 3 7 2 16 -1 19 -3 4 -6 -2 -5 -13z"/>
<path d="M4945 1240 c-3 -5 -1 -10 4 -10 6 0 11 5 11 10 0 6 -2 10 -4 10 -3 0
-8 -4 -11 -10z"/>
<path d="M5295 1240 c-3 -5 -1 -10 4 -10 6 0 11 5 11 10 0 6 -2 10 -4 10 -3 0
-8 -4 -11 -10z"/>
<path d="M6010 1239 c0 -5 5 -7 10 -4 6 3 10 8 10 11 0 2 -4 4 -10 4 -5 0 -10
-5 -10 -11z"/>
<path d="M2360 1229 c0 -5 5 -7 10 -4 6 3 10 8 10 11 0 2 -4 4 -10 4 -5 0 -10
-5 -10 -11z"/>
<path d="M3250 1230 c0 -5 5 -10 10 -10 6 0 10 5 10 10 0 6 -4 10 -10 10 -5 0
-10 -4 -10 -10z"/>
<path d="M3301 1224 c0 -11 3 -14 6 -6 3 7 2 16 -1 19 -3 4 -6 -2 -5 -13z"/>
<path d="M3530 1225 c0 -8 5 -15 10 -15 6 0 10 7 10 15 0 8 -4 15 -10 15 -5 0
-10 -7 -10 -15z"/>
<path d="M3820 1230 c0 -5 5 -10 10 -10 6 0 10 5 10 10 0 6 -4 10 -10 10 -5 0
-10 -4 -10 -10z"/>
<path d="M4072 1220 c0 -14 2 -19 5 -12 2 6 2 18 0 25 -3 6 -5 1 -5 -13z"/>
<path d="M4661 1224 c0 -11 3 -14 6 -6 3 7 2 16 -1 19 -3 4 -6 -2 -5 -13z"/>
<path d="M6600 1231 c0 -5 6 -14 14 -20 12 -10 13 -8 9 8 -5 21 -23 30 -23 12z"/>
<path d="M6210 1221 c0 -5 5 -13 10 -16 6 -3 10 -2 10 4 0 5 -4 13 -10 16 -5
3 -10 2 -10 -4z"/>
<path d="M1625 1210 c-3 -5 1 -10 9 -10 9 0 16 5 16 10 0 6 -4 10 -9 10 -6 0
-13 -4 -16 -10z"/>
<path d="M4415 1210 c-3 -5 -1 -10 4 -10 6 0 11 5 11 10 0 6 -2 10 -4 10 -3 0
-8 -4 -11 -10z"/>
<path d="M6575 1210 c-3 -5 1 -10 9 -10 9 0 16 5 16 10 0 6 -4 10 -9 10 -6 0
-13 -4 -16 -10z"/>
<path d="M6570 1180 c0 -5 4 -10 9 -10 6 0 13 5 16 10 3 6 -1 10 -9 10 -9 0
-16 -4 -16 -10z"/>
<path d="M1698 1173 c7 -3 16 -2 19 1 4 3 -2 6 -13 5 -11 0 -14 -3 -6 -6z"/>
</g>
</svg>
